<?xml version="1.0" standalone="no"?>
<!DOCTYPE svg PUBLIC "-//W3C//DTD SVG 20010904//EN"
 "http://www.w3.org/TR/2001/REC-SVG-20010904/DTD/svg10.dtd">
<svg version="1.0" xmlns="http://www.w3.org/2000/svg"
 width="512.000000pt" height="512.000000pt" viewBox="0 0 512.000000 512.000000"
 preserveAspectRatio="xMidYMid meet">
<metadata>
Created by potrace 1.11, written by Peter Selinger 2001-2013
</metadata>
<g transform="translate(0.000000,512.000000) scale(0.100000,-0.100000)"
fill="#000000" stroke="none">
<path d="M1350 5061 c-136 -20 -143 -22 -265 -65 -33 -11 -65 -21 -70 -22 -20
-3 -200 -93 -238 -118 -21 -14 -42 -26 -47 -26 -4 0 -10 -3 -12 -7 -1 -5 -38
-34 -81 -66 -43 -32 -81 -65 -84 -73 -3 -8 -10 -14 -15 -14 -12 0 -78 -67 -78
-80 0 -6 -4 -10 -9 -10 -10 0 -102 -113 -142 -175 -49 -74 -119 -201 -123
-225 -1 -3 -5 -11 -9 -18 -9 -14 -56 -147 -62 -176 -3 -10 -9 -33 -14 -50 -6
-17 -12 -44 -15 -61 -2 -16 -5 -30 -6 -30 -21 0 -19 -791 1 -831 3 -5 4 -20 3
-34 -1 -14 4 -68 12 -120 8 -52 16 -113 18 -135 6 -54 15 -111 26 -165 5 -25
11 -58 14 -75 16 -111 86 -396 127 -520 6 -16 12 -37 14 -45 15 -61 101 -299
142 -395 86 -199 216 -456 235 -463 4 -2 8 -8 8 -14 0 -6 18 -37 40 -69 22
-32 40 -61 40 -64 0 -6 131 -182 165 -223 92 -109 207 -223 310 -307 20 -16
42 -35 48 -40 7 -6 48 -34 92 -63 44 -28 85 -55 90 -59 53 -42 339 -147 437
-160 112 -14 558 -8 558 8 0 3 11 5 24 4 13 -2 50 3 82 11 33 8 73 16 89 19
36 4 212 52 240 65 11 5 52 18 90 31 39 12 75 26 81 30 6 5 29 15 51 23 72 25
318 152 347 178 11 10 23 18 28 18 8 0 149 93 174 115 6 6 22 17 34 25 100 66
375 322 485 454 28 32 58 66 68 75 9 8 17 19 17 23 0 5 8 16 18 26 27 30 52
62 52 68 0 3 15 24 34 47 43 53 158 232 177 275 8 17 17 32 20 32 6 0 127 238
177 350 44 96 132 334 154 415 10 39 21 77 25 85 3 8 7 22 9 31 2 8 11 42 20
75 9 32 17 66 19 74 2 15 7 39 26 115 5 22 11 56 13 75 3 19 9 60 15 90 28
147 31 181 37 500 5 207 3 299 -6 340 -16 72 -89 217 -148 294 -55 72 -172
194 -172 181 0 -6 -5 -2 -11 7 -16 28 -247 198 -269 198 -4 0 -10 4 -12 8 -5
14 -257 147 -368 195 -19 8 -53 23 -75 33 -22 9 -45 18 -52 19 -10 3 -69 25
-178 68 -16 6 -32 12 -35 12 -3 1 -21 6 -41 13 -20 7 -45 14 -55 17 -10 2 -80
21 -154 43 -146 42 -223 63 -255 67 -11 2 -49 10 -85 19 -36 8 -78 17 -95 20
-31 6 -48 9 -130 26 -59 12 -298 48 -370 55 -27 3 -68 8 -90 10 -22 2 -56 7
-75 10 -19 3 -69 8 -110 11 -41 3 -95 8 -120 10 -102 8 -759 12 -810 5z"/>
</g>
</svg>
